<svg xmlns="http://www.w3.org/2000/svg" width="252" height="154" fill="none"><path fill="#DBF786" stroke="#123A14" stroke-width="1.5" d="m94.67 22.064 14.357 15.664 8.944-18.608.498-1.04.748.877 13.949 16.35 10.045-18.172.578-1.044.69.973 12.614 17.784 11.872-15.996.708-.954.557 1.051 10.227 19.313 13.688-13.805.844-.852.397 1.132 7.372 21.04 17.467-9.52 1.133-.617-.023 1.29-.405 21.723 18.2 6.323 1.478.514-1.327.83L223.17 76.4l4.802 21.069.274 1.203-1.195-.311-18.762-4.893-1.933 21.59-.101 1.136-1.003-.543-17.202-9.304-5.209 20.079-.287 1.104-.899-.7-16.058-12.476-7.45 18.483-.412 1.019-.799-.755-14.671-13.85-9.502 18.781-.509 1.005-.731-.857-13.949-16.348-9.591 17.474-.563 1.027-.697-.941-13.106-17.694-10.75 16.414-.671 1.023-.608-1.061-11.35-19.829-13.63 14.422-.852.9-.403-1.171-7.442-21.616-16.298 9.945-1.099.671-.042-1.287-.717-22.236-18.75-6.266-1.592-.533 1.46-.83 18.175-10.34-6.427-21.436-.404-1.35 1.345.418 19.425 6.022 1.93-21.548.107-1.197 1.029.622 17.313 10.472 4.981-21.868.28-1.226.946.829L85.819 43.87l7.59-21.55.416-1.179.845.922Z"/><path stroke="#331612" stroke-width="1.5" d="m94.112 17.629 14.955 16.475 9.277-19.539.499-1.052.751.889 14.531 17.194 10.424-19.076.578-1.058.694.987 13.143 18.697L171.29 14.36l.71-.967.559 1.062 10.663 20.305 14.218-14.485.846-.863.398 1.141 7.697 22.111 18.149-9.974 1.134-.623-.023 1.292-.389 22.813 18.927 6.663 1.462.515-1.31.827-16.735 10.562 5.02 22.13.274 1.209-1.197-.317-19.517-5.164-1.982 22.677-.1 1.144-1.007-.552-17.901-9.796-5.392 21.087-.286 1.115-.904-.711-16.716-13.128-7.725 19.409-.412 1.031-.803-.766-15.277-14.569-9.856 19.714-.509 1.018-.735-.869-14.53-17.193-9.953 18.347-.565 1.04-.699-.954-13.655-18.605-11.162 17.23-.67 1.037-.611-1.075-11.83-20.843-14.159 15.131-.852.912-.405-1.182-7.769-22.717-16.936 10.425-1.1.677-.044-1.291-.774-23.349-19.5-6.605-1.574-.534 1.442-.826 18.882-10.834-6.712-22.52-.403-1.353 1.347.423 20.207 6.351 1.979-22.634.106-1.207 1.032.633 18.022 11.023 5.152-22.967.278-1.238.95.841 16.917 14.971 7.866-22.629.414-1.192z"/><path fill="#9BCA3F" fill-rule="evenodd" d="m78.944 104.16-.027-.001.028.001Zm-21.8-12.453v.001zm.894 2.957a5 5 0 0 0 .216.277h.002a5 5 0 0 0-.218-.277m5.137 1.748a13 13 0 0 0 1.672 1.989c.946.952 2 1.788 3.141 2.493a20.8 20.8 0 0 0 5.283 2.324 23 23 0 0 1-5.281-2.326 17 17 0 0 1-3.142-2.494 11 11 0 0 1-.842-.9 13 13 0 0 1-.828-1.086zm19.814 6.456-.18-.09-.096.102c-2.753.15-5.302-.028-7.632-.533 2.396.52 5.023.695 7.864.522zm-11.637-1.684a19 19 0 0 1-2.683-1.383 16 16 0 0 1-2.923-2.32 11 11 0 0 1-.761-.816v.002q.358.43.76.815a15.8 15.8 0 0 0 2.923 2.321q1.27.79 2.684 1.381m-7.346-5.865a.64.64 0 0 0-.817-.278l.002.001a.64.64 0 0 1 .815.277m-2.946-.096a3.43 3.43 0 0 1-1.823-1.113 3.3 3.3 0 0 1-.483-.77 3.3 3.3 0 0 1-.321-1.24c.025.43.132.854.319 1.247a3.2 3.2 0 0 0 .483.764 3.44 3.44 0 0 0 1.825 1.112m-2.596-3.82V91.4l.002-.003c.003-.012.013-.09.014-.105l.017-.098a.64.64 0 0 0-.233-.573.67.67 0 0 0-.619-.124l-.031.01-.002-.001q-.174.052-.335.138a.643.643 0 0 0-.003 1.122q.172.095.358.154a.642.642 0 0 0 .835-.561l.002-.015.002-.012-.007.07Zm-2.22-9.006a.64.64 0 0 0-.12-.966h-.005a.642.642 0 0 1 .126.966Z" clip-rule="evenodd"/><path fill="#9BCA3F" d="M58.242 91.798a.64.64 0 0 1-.61.122 2 2 0 0 1-.358-.153.642.642 0 0 1 .003-1.123 2 2 0 0 1 .4-.156.64.64 0 0 1 .813.727l-.006.037a1 1 0 0 0-.017.107.64.64 0 0 1-.225.439"/><path fill="#9BCA3F" d="M58.242 91.798a.64.64 0 0 1-.61.122 2 2 0 0 1-.358-.153.642.642 0 0 1 .003-1.123 2 2 0 0 1 .4-.156.64.64 0 0 1 .813.727l-.006.037a1 1 0 0 0-.017.107.64.64 0 0 1-.225.439"/><path fill="#9BCA3F" d="M58.242 91.798a.64.64 0 0 1-.61.122 2 2 0 0 1-.358-.153.642.642 0 0 1 .003-1.123 2 2 0 0 1 .4-.156.64.64 0 0 1 .813.727l-.006.037a1 1 0 0 0-.017.107.64.64 0 0 1-.225.439"/><path fill="#9BCA3F" fill-rule="evenodd" d="m78.945 104.16-.028-.001q-3.008-.183-5.646-.941a23 23 0 0 0 5.665.942zM57.144 91.708l.002.001h-.002Zm.444 2.18v.002zm.883-2.556a.64.64 0 0 0-.448-.634 1 1 0 0 1-.166-.074 5.1 5.1 0 0 1-1.767-1.34 5.2 5.2 0 0 1-.67-5.648 5 5 0 0 1 .825-1.239 5 5 0 0 0-.826 1.237 5.2 5.2 0 0 0 .671 5.65c.424.503.94.917 1.522 1.222q-.174.052-.335.138a.643.643 0 0 0-.003 1.122q.171.095.358.154a.642.642 0 0 0 .835-.561l.002-.015zm-4.014-12.375a3.8 3.8 0 0 1 .012-1.521v-.001a3.8 3.8 0 0 0-.012 1.522m12.013-4.389-.084.149a.6.6 0 0 0 .08-.14zm-2.048 6.146-.017-.237a.7.7 0 0 0 .017.237m4.48 10.916-.287-.383a.64.64 0 0 0 .287.383m.95-.857a25 25 0 0 1-1.056-1.503c.326-1.094 1.095-2.531 2.855-3.98a.643.643 0 0 1 1.026.308.63.63 0 0 1-.21.684l-.123.104c-2.35 1.99-2.51 3.809-2.493 4.387Z" clip-rule="evenodd"/><path fill="#9BCA3F" fill-rule="evenodd" d="M82.809 102.778c.208-.232.504-.612.7-1.082-1.982-.994-9.031-4.808-13.658-10.923q-.552-.729-1.055-1.503c-1.626-2.513-2.8-5.366-3.08-8.53.988-1.182 3.433-3.658 5.327-3.754a.643.643 0 0 0-.066-1.282c-1.972.1-4.075 1.916-5.323 3.197a17.3 17.3 0 0 1 .362-3.134 3.55 3.55 0 0 1 2.634-2.809 3.2 3.2 0 0 1 .746-.064.642.642 0 1 0 .044-1.283 4.5 4.5 0 0 0-1.048.089 4.8 4.8 0 0 0-2.651 1.662 2.93 2.93 0 0 1-.766-2.09.642.642 0 1 0-1.281-.088 4.23 4.23 0 0 0 1.368 3.312 4.8 4.8 0 0 0-.303 1.01 18.3 18.3 0 0 0-.337 5.208c.12 1.482.422 2.898.867 4.247a5.13 5.13 0 0 1-4.71-2.484.642.642 0 1 0-1.121.627c.02.038 2.084 3.643 6.292 3.108.738 1.813 1.728 3.493 2.865 5.035q.142.192.287.383c1.254 1.64 2.668 3.116 4.111 4.422A5 5 0 0 1 70.067 96a.641.641 0 0 0-.443 1.205 6.22 6.22 0 0 0 4.495-.187 47.5 47.5 0 0 0 8.69 5.761Z" clip-rule="evenodd"/><path fill="#9BCA3F" d="m83.408 103.992-.007.006-.002.002a.7.7 0 0 1-.141.091c-.35.164-8.498 3.914-15.835.608a4.686 4.686 0 0 1-6.665-.512 4.6 4.6 0 0 1-.629-.958 6.43 6.43 0 0 1-7.052-7.527 6.41 6.41 0 0 1-5.268-7.414c-1.098-.892-4.267-3.723-3.779-6.34.244-1.309 1.336-2.297 3.24-2.94-.032-1.01.091-3.164 1.602-4.269 1.252-.916 3.09-.867 5.47.144l.134-.154a4.113 4.113 0 0 1 3.228-6.468 3.82 3.82 0 0 1 1.336-2.535 3.864 3.864 0 0 1 5.439.46l.008.01.04-.033a5.147 5.147 0 0 1 7.08.413 7.43 7.43 0 0 1 7.697 2.312 7.57 7.57 0 0 1 .155 9.418c1.215.039 2.648.583 4.037 2.304a.643.643 0 0 1-.107.912c-4.15 3.21-6.144 6.305-5.913 9.187.288 3.62 3.975 6.001 5.547 6.858a3.8 3.8 0 0 1 1.746 1.92c.94 2.46-1.265 4.424-1.36 4.505Zm-4.463.168h-.002c-3.023.715-7.404 1.132-11.367-.807a.65.65 0 0 0-.698.086l-.06.06q-.122.135-.26.252a3.42 3.42 0 0 1-4.82-.393 3.2 3.2 0 0 1-.596-1.038.64.64 0 0 0-.727-.428 5.153 5.153 0 0 1-5.932-6.562.642.642 0 0 0-.582-.824 5.138 5.138 0 0 1-4.76-6.326.64.64 0 0 0-.237-.66c-1.125-.852-3.96-3.463-3.614-5.334.168-.902 1.12-1.607 2.83-2.096a.64.64 0 0 0 .46-.698v-.003c-.011-.105-.288-2.646 1.053-3.616.819-.597 2.191-.525 3.993.203a5.14 5.14 0 0 0 .69 5.561q.246.291.533.54a6 6 0 0 0-.59 1.005 6.48 6.48 0 0 0 .848 7.032 6.3 6.3 0 0 0 2.037 1.593v.001l.002.001a4.55 4.55 0 0 0 .442 2.178 4.5 4.5 0 0 0 .668 1.055 4.74 4.74 0 0 0 4.919 1.47h.003q.385.565.828 1.086.396.473.842.9c.945.953 2 1.791 3.142 2.494a23 23 0 0 0 5.28 2.326q2.64.758 5.647.941zM54.728 76.647q.146-.32.347-.61a4 4 0 0 1 .69-.774.642.642 0 0 0 0-.98 2.835 2.835 0 0 1 1.299-4.634 2.8 2.8 0 0 1 1.182-.075.635.635 0 0 0 .701-.41.64.64 0 0 0 .037-.288 2.52 2.52 0 0 1 .886-2.17 2.578 2.578 0 0 1 3.948.787.642.642 0 0 0 1.08.112q.206-.254.458-.462a3.87 3.87 0 0 1 5.46.474.64.64 0 0 0 .772.307 6.17 6.17 0 0 1 6.736 1.794 6.357 6.357 0 0 1-.933 8.927 2 2 0 0 1-.225.174.643.643 0 0 0 .607 1.13c1.542-.71 2.986-.38 4.297.982-4.147 3.354-6.129 6.674-5.872 9.882.34 4.244 4.457 6.926 6.21 7.881a2.5 2.5 0 0 1 1.164 1.255c.244.639.148 1.244-.062 1.747-.197.47-.493.85-.701 1.082l.18.09-.044.001c-2.84.173-5.468-.002-7.864-.522a21 21 0 0 1-3.73-1.163 19 19 0 0 1-2.683-1.38 15.7 15.7 0 0 1-2.922-2.322 10 10 0 0 1-.76-.815 9.4 9.4 0 0 1-.977-1.343l-.002-.002-.001-.003a.64.64 0 0 0-.815-.277 3.44 3.44 0 0 1-3.956-.931 3.2 3.2 0 0 1-.483-.764 3.37 3.37 0 0 1-.288-1.944l.007-.071-.002.012-.002.015a.64.64 0 0 1-.834.561 2 2 0 0 1-.359-.154.642.642 0 0 1 .003-1.122q.162-.085.335-.138a5.1 5.1 0 0 1-1.522-1.221 5.2 5.2 0 0 1-.671-5.651c.212-.451.49-.868.826-1.237a.64.64 0 0 0-.126-.967 3.83 3.83 0 0 1-1.39-4.784Z"/><path fill="#123A14" d="M83.401 103.998a.64.64 0 0 1-.377.151c-5.928.362-10.987-.734-15.036-3.255a17 17 0 0 1-3.14-2.493 12 12 0 0 1-.845-.904q-.443-.521-.828-1.086a4.73 4.73 0 0 1-4.921-1.47 4.5 4.5 0 0 1-.666-1.053 4.54 4.54 0 0 1-.442-2.179 6.4 6.4 0 0 1-2.035-1.595 6.49 6.49 0 0 1-.85-7.034q.248-.53.593-1.002a5 5 0 0 1-.535-.54 5.13 5.13 0 0 1-.3-6.23q.21-.305.457-.579a4.113 4.113 0 0 1 3.228-6.468 3.82 3.82 0 0 1 1.336-2.535 3.864 3.864 0 0 1 5.439.46l.008.01.04-.033a5.147 5.147 0 0 1 7.08.413 7.43 7.43 0 0 1 7.697 2.312 7.57 7.57 0 0 1 .155 9.418c1.215.039 2.648.583 4.037 2.304a.643.643 0 0 1-.107.912c-4.15 3.21-6.144 6.305-5.913 9.187.288 3.62 3.975 6.001 5.547 6.858a3.8 3.8 0 0 1 1.746 1.92c.94 2.46-1.265 4.424-1.36 4.505zM57.614 90.507l.031-.01a.666.666 0 0 1 .809.38c.04.1.055.21.042.317l-.016.098c-.001.014-.01.093-.014.105a3.3 3.3 0 0 0 .288 1.944c.124.278.287.537.483.769a3.43 3.43 0 0 0 3.952.93.643.643 0 0 1 .818.281q.43.715.977 1.344.363.43.767.821a16 16 0 0 0 2.918 2.315c3.766 2.347 8.49 3.382 14.044 3.079.39-.403 1.37-1.595.86-2.931a2.5 2.5 0 0 0-1.164-1.255c-1.754-.955-5.872-3.637-6.211-7.881-.257-3.208 1.725-6.528 5.872-9.882-1.311-1.361-2.755-1.691-4.297-.982a.642.642 0 0 1-.607-1.13 2 2 0 0 0 .225-.174 6.357 6.357 0 0 0 .933-8.927 6.17 6.17 0 0 0-6.736-1.794.64.64 0 0 1-.772-.307 3.87 3.87 0 0 0-5.46-.474 3.2 3.2 0 0 0-.458.462.642.642 0 0 1-1.08-.112 2.578 2.578 0 0 0-3.948-.787 2.52 2.52 0 0 0-.886 2.17.642.642 0 0 1-.738.698 2.78 2.78 0 0 0-2.225.635 2.835 2.835 0 0 0-.255 4.074.642.642 0 0 1 0 .98 4 4 0 0 0-.69.775 3.825 3.825 0 0 0 1.048 5.393.643.643 0 0 1 .12.966 5 5 0 0 0-.825 1.237 5.2 5.2 0 0 0 .671 5.65 5.1 5.1 0 0 0 1.524 1.223"/><path fill="#123A14" d="M58.242 91.798a.64.64 0 0 1-.61.122 2 2 0 0 1-.358-.153.642.642 0 0 1 .003-1.123q.19-.101.4-.156a.64.64 0 0 1 .813.727l-.006.037a1 1 0 0 0-.017.107.64.64 0 0 1-.225.439"/><path fill="#123A14" d="M58.242 91.798a.64.64 0 0 1-.61.122 2 2 0 0 1-.358-.153.642.642 0 0 1 .003-1.123q.19-.101.4-.156a.64.64 0 0 1 .813.727l-.006.037a1 1 0 0 0-.017.107.64.64 0 0 1-.225.439"/><path fill="#123A14" d="M58.242 91.798a.64.64 0 0 1-.61.122 2 2 0 0 1-.358-.153.642.642 0 0 1 .003-1.123q.19-.101.4-.156a.64.64 0 0 1 .813.727l-.006.037a1 1 0 0 0-.017.107.64.64 0 0 1-.225.439"/><path fill="#123A14" d="M83.4 104a.7.7 0 0 1-.142.091c-.35.164-8.498 3.914-15.835.608a4.686 4.686 0 0 1-6.665-.512 4.6 4.6 0 0 1-.629-.958 6.43 6.43 0 0 1-7.052-7.527 6.41 6.41 0 0 1-5.268-7.414c-1.098-.892-4.267-3.723-3.779-6.34.244-1.309 1.336-2.297 3.24-2.94-.032-1.01.091-3.164 1.602-4.269 1.333-.976 3.333-.856 5.943.354a.64.64 0 0 1 .258.947 3.827 3.827 0 0 0 1.046 5.39.642.642 0 0 1 .126.967 5 5 0 0 0-.824 1.24 5.2 5.2 0 0 0 .67 5.648 5.1 5.1 0 0 0 1.766 1.34 1 1 0 0 0 .166.073.64.64 0 0 1 .441.705c-.1.662.001 1.339.288 1.944a3.2 3.2 0 0 0 .483.764 3.44 3.44 0 0 0 3.956.931.64.64 0 0 1 .818.282q.429.715.976 1.343.358.43.76.815a15.8 15.8 0 0 0 2.923 2.321c3.823 2.377 8.627 3.41 14.277 3.066a.643.643 0 0 1 .453 1.132zm-16.522-.561a.64.64 0 0 1 .698-.086c3.964 1.94 8.346 1.522 11.37.807a23.1 23.1 0 0 1-10.956-3.268 17 17 0 0 1-3.142-2.494 11 11 0 0 1-.842-.9 13 13 0 0 1-.828-1.086 4.74 4.74 0 0 1-4.922-1.47 4.4 4.4 0 0 1-.668-1.052 4.6 4.6 0 0 1-.444-2.183 6.3 6.3 0 0 1-2.037-1.593 6.48 6.48 0 0 1-.849-7.032q.248-.531.591-1.005a5 5 0 0 1-.532-.54 5.14 5.14 0 0 1-.69-5.56c-1.803-.729-3.175-.801-3.994-.204-1.362.986-1.055 3.593-1.053 3.619a.64.64 0 0 1-.46.698c-1.71.489-2.662 1.194-2.83 2.096-.346 1.87 2.49 4.482 3.614 5.333a.64.64 0 0 1 .237.661 5.137 5.137 0 0 0 4.76 6.326.64.64 0 0 1 .582.824 5.15 5.15 0 0 0 5.932 6.562.644.644 0 0 1 .727.428c.131.381.333.734.597 1.038a3.42 3.42 0 0 0 4.819.393q.138-.117.26-.252z"/><path fill="#123A14" d="M84.195 103.03a.65.65 0 0 1-.677.094c-.225-.101-22.352-10.299-18.759-27.618a4.79 4.79 0 0 1 3.633-3.806 4.5 4.5 0 0 1 1.048-.09.642.642 0 1 1-.044 1.284q-.376-.012-.746.064a3.56 3.56 0 0 0-2.634 2.81c-3.384 16.31 17.814 26.09 18.028 26.187a.643.643 0 0 1 .152 1.074z"/><path fill="#123A14" d="M66.29 74.817a.64.64 0 0 1-.764.049 4.23 4.23 0 0 1-1.832-3.682.643.643 0 0 1 1.281.089 2.93 2.93 0 0 0 1.249 2.514.64.64 0 0 1 .066 1.03m5.135 2.018a.64.64 0 0 1-.382.151c-2.014.102-4.65 2.894-5.497 3.962a.643.643 0 0 1-1.007-.798c.14-.175 3.44-4.295 6.438-4.446a.642.642 0 0 1 .448 1.131m-4.88 9.155a.64.64 0 0 1-.289.139c-4.549.907-6.776-2.986-6.798-3.025a.642.642 0 0 1 1.12-.627 5.13 5.13 0 0 0 5.426 2.39.642.642 0 0 1 .54 1.12l.001.002Zm3.105 5.58a.64.64 0 0 1-1.047-.375c-.023-.12-.493-2.99 3.048-5.905a.643.643 0 0 1 1.026.308.63.63 0 0 1-.21.684l-.123.104c-2.839 2.404-2.482 4.556-2.477 4.578a.64.64 0 0 1-.217.606m4.942 5.2a1 1 0 0 1-.095.066 6.22 6.22 0 0 1-4.873.368.642.642 0 0 1 .444-1.205 5 5 0 0 0 3.788-.276.642.642 0 0 1 .736 1.046ZM92.317 77.2l-2.003-15.713 3.857-.492 2.002 15.713zm1.215-5.841-.4-3.143 7.999-1.019.4 3.143zm-.88-6.904-.41-3.214 8.809-1.123.41 3.214zm11.473 11.24-.871-6.833-.731-5.738 3.333-.425.637 5 .191-.024q-.113-2.019.147-3.212.28-1.222.838-1.777a2.3 2.3 0 0 1 1.365-.682 3.5 3.5 0 0 1 .896.007q.49.059.977.263l.355 4.31a4.4 4.4 0 0 0-1.081-.323 3 3 0 0 0-.973-.045q-.763.097-1.231.592-.47.496-.649 1.365-.156.867-.004 2.057l.634 4.976zm15.271-1.608q-1.785.228-3.063-.118-1.257-.372-2.107-1.158a5.8 5.8 0 0 1-1.333-1.911 9.3 9.3 0 0 1-.616-2.365 10 10 0 0 1 .003-2.638 6.8 6.8 0 0 1 .792-2.327 5.1 5.1 0 0 1 1.687-1.763q1.093-.72 2.712-.927 1.62-.206 2.835.22a4.6 4.6 0 0 1 2.054 1.31q.818.913 1.175 2.198.381 1.282.314 2.839l-9.1 1.305-.267-2.095 6.151-.905-.346 1.278q.004-1.113-.281-1.827-.264-.741-.788-1.061-.528-.345-1.361-.238-.88.112-1.347.631-.466.52-.574 1.38-.111.837.031 1.956.246 1.928 1.001 2.727.754.8 2.088.63.571-.074.934-.265.363-.192.568-.484.201-.316.248-.709a3.3 3.3 0 0 0-.044-.913l3.548-.26q.172.778.04 1.641a3.8 3.8 0 0 1-.636 1.654q-.528.793-1.59 1.388-1.037.591-2.728.807m12.312-1.569q-1.262.16-2.391.039a5.5 5.5 0 0 1-1.981-.546 3.66 3.66 0 0 1-1.399-1.298q-.524-.876-.618-2.195l3.32-.714q.147.78.524 1.264.373.46.951.629t1.364.068q.738-.094 1.231-.399.514-.33.438-.927a.68.68 0 0 0-.254-.475q-.218-.19-.762-.29-.525-.127-1.531-.24a40 40 0 0 1-2.269-.34q-1.016-.186-1.761-.526t-1.181-.914q-.439-.597-.557-1.526-.167-1.31.408-2.302.596-1.02 1.773-1.653 1.175-.658 2.793-.864a8 8 0 0 1 2.772.106q1.32.291 2.164 1.224.869.93.894 2.644l-3.246.729q-.016-.7-.339-1.143a1.65 1.65 0 0 0-.856-.64q-.534-.199-1.248-.108-.81.104-1.222.47-.392.341-.335.793a.86.86 0 0 0 .341.586q.316.2.912.32.617.09 1.572.186a21 21 0 0 1 1.745.213 7.3 7.3 0 0 1 1.734.505q.816.331 1.383.985t.707 1.749q.149 1.166-.382 2.129-.53.963-1.708 1.597-1.177.633-2.986.864m6.757-1.2-.847-6.642-1.277-10.023 3.856-.491.401 3.142q.063.5.098 1.343.056.815.055 1.759.023.94.014 1.813.01.844.012 1.425l.214-.027q-.037-2.003.329-3.308.363-1.329 1.194-2.015.83-.71 2.115-.874 2.024-.258 3.185 1.07 1.158 1.304 1.528 4.208l.907 7.119-3.857.491-.886-6.952q-.17-1.333-.605-1.907-.436-.572-1.246-.47-.714.09-1.216.712-.504.596-.713 1.808-.185 1.209.052 3.066l.543 4.262zM94.61 101.101 87.655 86.02l4.19-.534 4.834 12.11.072-.01 1.57-12.926 4.19-.534-2.95 16.344zm15.359-1.618q-1.786.227-3.064-.118-1.257-.372-2.107-1.159a5.8 5.8 0 0 1-1.332-1.91 9.2 9.2 0 0 1-.616-2.366 10 10 0 0 1 .002-2.637 6.8 6.8 0 0 1 .793-2.327 5.1 5.1 0 0 1 1.686-1.763q1.094-.72 2.713-.927 1.619-.206 2.834.22a4.6 4.6 0 0 1 2.055 1.31q.817.912 1.175 2.197.38 1.283.313 2.84l-9.1 1.304-.267-2.095 6.151-.904-.345 1.278q.003-1.114-.281-1.828-.264-.74-.789-1.06-.528-.346-1.361-.238-.88.112-1.347.631t-.574 1.38q-.111.837.031 1.955.246 1.929 1.001 2.728.756.798 2.089.629.57-.074.934-.264.362-.192.567-.484.202-.315.248-.71a3.3 3.3 0 0 0-.043-.913l3.547-.258q.172.776.04 1.64a3.8 3.8 0 0 1-.636 1.653q-.528.794-1.589 1.388-1.038.592-2.728.808m12.224 1.926q-2.12.27-3.399.094-1.281-.175-1.88-.704a1.93 1.93 0 0 1-.694-1.266q-.133-1.048.621-1.773.752-.75 2.316-1.19l-.015-.12q-1.215.156-1.956-.161-.746-.34-.839-1.079-.088-.69.461-1.317.573-.63 2.001-.811l-.021-.167q-1.325-.145-2.199-.93-.874-.783-1.053-2.188-.158-1.238.346-2.221.527-.987 1.678-1.642 1.147-.678 2.885-.9l6.261-.797.377 2.952-4.379.001.024.19q2.009.01 2.782.566.792.528.905 1.408a2.48 2.48 0 0 1-.347 1.641q-.436.757-1.503 1.305-1.07.523-2.785.742-.523.066-1.077.089a6 6 0 0 1-.923-.028 2.7 2.7 0 0 0-.598.44q-.193.194-.168.384.015.119.119.178a.9.9 0 0 0 .271.038q.193 0 .432-.03l3.809-.486q.5-.064 1.247-.087a4.6 4.6 0 0 1 1.545.166q.8.189 1.387.816.588.627.748 1.888.183 1.43-.464 2.43-.623 1-2.092 1.622-1.466.647-3.823.947m-.431-3.38q1.595-.204 2.342-.42.75-.192.963-.413.214-.221.184-.46-.042-.333-.257-.499a1 1 0 0 0-.51-.2 1.8 1.8 0 0 0-.583-.023 5 5 0 0 0-.432.03l-3.214.41q-.728.359-.984.634-.234.247-.198.533a.49.49 0 0 0 .37.437q.355.123.932.098.601-.027 1.387-.128Zm-.487-7.052q.761-.097 1.106-.625.368-.53.261-1.364-.105-.832-.598-1.278-.495-.47-1.257-.372-.738.094-1.124.675-.365.555-.258 1.388.07.547.311.928.243.38.627.55.408.165.932.098m13.966 5.285q-1.786.227-3.063-.118-1.258-.372-2.108-1.159a5.8 5.8 0 0 1-1.332-1.91 9.2 9.2 0 0 1-.616-2.366 10 10 0 0 1 .003-2.637 6.7 6.7 0 0 1 .792-2.327 5.1 5.1 0 0 1 1.686-1.763q1.095-.72 2.713-.927 1.619-.206 2.834.22a4.6 4.6 0 0 1 2.055 1.31q.818.913 1.175 2.198.38 1.282.313 2.839l-9.1 1.305-.267-2.095 6.151-.905-.345 1.278q.003-1.114-.281-1.827-.264-.741-.789-1.061-.528-.345-1.361-.238-.88.112-1.347.631t-.574 1.38q-.11.837.032 1.956.245 1.927 1 2.727.756.799 2.089.63.571-.075.934-.265.363-.192.567-.484a1.7 1.7 0 0 0 .249-.709 3.3 3.3 0 0 0-.044-.914l3.547-.258q.172.776.04 1.64a3.8 3.8 0 0 1-.636 1.654q-.528.792-1.589 1.388-1.038.591-2.728.807m11.829-1.556q-2.214.282-3.452-.697-1.217-1.006-1.52-3.387l-.665-5.214-1.381.176-.309-2.428.071-.01q1.452-.378 1.971-1.243.516-.888.452-2.525l-.006-.047 2.262-.289.367 2.88 2.881-.366.394 3.095-2.881.367.607 4.761q.116.905.593 1.231.501.323 1.143.242.334-.044.679-.183.345-.141.633-.347l.428 3.357a7 7 0 0 1-1.276.428 8 8 0 0 1-.991.2Zm6.987-.842a5 5 0 0 1-1.852-.103 3.16 3.16 0 0 1-1.541-.892q-.645-.692-.805-1.954-.15-1.167.212-1.938.358-.795 1.066-1.322a6 6 0 0 1 1.581-.879 26 26 0 0 1 1.734-.632q1.207-.396 1.809-.617.6-.222.791-.44a.64.64 0 0 0 .171-.554q-.088-.69-.657-.98-.546-.294-1.379-.188-.523.067-1.023.324t-.769.8q-.273.518-.134 1.42l-3.459.199q-.238-1.493.137-2.534.373-1.063 1.16-1.72a6 6 0 0 1 1.801-1.052 9.4 9.4 0 0 1 2.041-.503q1.881-.24 3.186.32 1.302.536 2.044 1.796.762 1.233 1.002 3.115l.285 2.238.203 1.595.2 1.57.201 1.572-3.334.425-.221-1.738-.237-1.857-.143.018a4.1 4.1 0 0 1-.462 2.067 4.5 4.5 0 0 1-1.413 1.632q-.91.648-2.195.812m1.237-3.013q.405-.051.839-.252.455-.226.814-.636.383-.411.566-1.064.18-.675.062-1.604l-.073-.572.634-.153q-.151.333-.579.582-.405.245-.937.434-.535.165-1.092.357-.536.165-.987.416a2.1 2.1 0 0 0-.725.576q-.249.323-.183.846.08.619.55.897.492.252 1.111.174Zm15.927.826q-1.071.136-1.941-.237t-1.536-1.232q-.645-.885-1.083-2.233l-.167.022.495 3.88-3.357.428-.564-4.428-1.56-12.237 3.857-.492.47 3.69q.083.643.105 1.39.046.746.027 1.545.005.798-.034 1.626l.214-.028q.014-1.598.437-2.644.423-1.045 1.223-1.608.8-.561 1.894-.7 1.405-.18 2.52.404 1.138.58 1.892 1.937.753 1.355 1.029 3.522.294 2.31-.157 3.89-.428 1.58-1.429 2.457-.978.874-2.335 1.048m-1.748-2.899q.714-.09 1.157-.607.439-.54.604-1.335a5.4 5.4 0 0 0 .043-1.747 6.2 6.2 0 0 0-.459-1.708q-.342-.78-.905-1.215-.564-.436-1.326-.34a2.2 2.2 0 0 0-.675.208q-.318.161-.594.462-.256.275-.442.71a3.3 3.3 0 0 0-.26 1q-.072.567.018 1.28l.021.167q.112.882.385 1.5.297.615.684 1.001.388.387.844.546.453.136.905.078m7.876 1.779-2.124-16.665 3.857-.492 2.124 16.665zm11.598-1.14q-1.785.228-3.063-.117-1.257-.372-2.108-1.159a5.8 5.8 0 0 1-1.332-1.91 9.2 9.2 0 0 1-.616-2.366 10 10 0 0 1 .003-2.637 6.8 6.8 0 0 1 .792-2.327 5.1 5.1 0 0 1 1.687-1.764q1.094-.72 2.712-.926 1.62-.207 2.835.22a4.6 4.6 0 0 1 2.054 1.31q.818.912 1.175 2.197.381 1.282.314 2.84l-9.101 1.304-.267-2.095 6.151-.905-.345 1.278q.004-1.112-.281-1.827-.264-.74-.788-1.06-.528-.345-1.361-.239-.882.113-1.347.632-.467.519-.575 1.38-.11.837.032 1.955.246 1.929 1.001 2.728.755.798 2.088.629.571-.073.934-.265.363-.19.567-.483.202-.315.249-.71a3.3 3.3 0 0 0-.044-.913l3.548-.259q.171.777.039 1.64a3.8 3.8 0 0 1-.636 1.654q-.528.794-1.589 1.388-1.038.592-2.728.808Zm12.311-1.568a10.2 10.2 0 0 1-2.39.038 5.5 5.5 0 0 1-1.981-.546 3.65 3.65 0 0 1-1.399-1.297q-.523-.877-.619-2.196l3.321-.713q.147.779.524 1.264.373.46.951.629.578.167 1.363.068.738-.094 1.232-.4.514-.331.438-.926a.68.68 0 0 0-.254-.476q-.217-.19-.763-.29-.524-.126-1.53-.24a40 40 0 0 1-2.27-.34 7.4 7.4 0 0 1-1.76-.526q-.745-.34-1.181-.914-.44-.597-.558-1.525-.167-1.309.409-2.303.595-1.02 1.773-1.653 1.174-.657 2.793-.864a8 8 0 0 1 2.772.107q1.319.291 2.164 1.224.869.929.893 2.644l-3.246.728q-.017-.7-.339-1.142a1.65 1.65 0 0 0-.856-.641q-.533-.198-1.247-.107-.81.103-1.223.47-.391.34-.334.793a.85.85 0 0 0 .341.585q.315.202.911.32.616.09 1.573.186a21 21 0 0 1 1.745.213q.914.15 1.733.505a3.6 3.6 0 0 1 1.384.985q.567.654.707 1.75.149 1.166-.382 2.128-.53.963-1.708 1.597-1.177.633-2.987.865"/></svg>